<?xml version="1.0" encoding="utf-8"?>
<!-- Generator: Adobe Illustrator 27.5.0, SVG Export Plug-In . SVG Version: 6.00 Build 0)  -->
<svg version="1.1" id="Слой_1" xmlns="http://www.w3.org/2000/svg" xmlns:xlink="http://www.w3.org/1999/xlink" x="0px" y="0px"
	 viewBox="0 0 2381.657 2000" style="enable-background:new 0 0 2381.657 2000;" xml:space="preserve">
<g>
	<rect style="fill:#F7F7F7;" width="2381.658" height="2000"/>
	<g>
		<g>
			<linearGradient id="SVGID_1_" gradientUnits="userSpaceOnUse" x1="304.7949" y1="566.208" x2="816.9844" y2="566.208">
				<stop  offset="0" style="stop-color:#FF9F55"/>
				<stop  offset="1" style="stop-color:#FFD255"/>
			</linearGradient>
			<path style="fill:url(#SVGID_1_);" d="M774.708,510.813c-5.199-20.123-13.174-39.127-23.475-56.596l23.897-35.94l-33.154-33.154
				l-33.154-33.154l-35.94,23.897c-17.469-10.301-36.473-18.275-56.596-23.475l-8.508-42.277H560.89h-46.887l-8.508,42.277
				c-20.124,5.199-39.127,13.174-56.596,23.475l-35.94-23.897l-33.154,33.154l-33.154,33.154l23.897,35.94
				c-10.301,17.469-18.276,36.473-23.475,56.596l-42.277,8.509v46.888v46.887l42.277,8.508
				c5.199,20.124,13.174,39.127,23.475,56.597l-23.897,35.94l33.154,33.154l33.154,33.154l35.94-23.898
				c17.469,10.301,36.473,18.276,56.596,23.475l8.508,42.277h46.887h46.887l8.508-42.277c20.123-5.198,39.127-13.174,56.596-23.475
				l35.94,23.898l33.154-33.154l33.154-33.154l-23.897-35.94c10.301-17.47,18.276-36.473,23.475-56.597l42.277-8.508v-46.887
				v-46.888L774.708,510.813z M560.89,730.502c-90.737,0-164.294-73.557-164.294-164.293c0-90.738,73.557-164.295,164.294-164.295
				c90.737,0,164.294,73.557,164.294,164.295C725.184,656.945,651.627,730.502,560.89,730.502z"/>
		</g>
		<g>
			
				<linearGradient id="SVGID_00000075859296806586027010000014238126068952689321_" gradientUnits="userSpaceOnUse" x1="731.4814" y1="306.1929" x2="966.292" y2="306.1929">
				<stop  offset="0" style="stop-color:#FF9F55"/>
				<stop  offset="1" style="stop-color:#FFD255"/>
			</linearGradient>
			<path style="fill:url(#SVGID_00000075859296806586027010000014238126068952689321_);" d="M946.911,280.797
				c-2.384-9.225-6.039-17.938-10.762-25.945l10.955-16.477l-15.199-15.199l-15.199-15.2l-16.477,10.956
				c-8.008-4.723-16.72-8.379-25.946-10.762l-3.901-19.382h-21.495h-21.495l-3.901,19.382c-9.225,2.383-17.938,6.039-25.946,10.762
				l-16.477-10.956l-15.2,15.2l-15.199,15.199l10.956,16.477c-4.722,8.008-8.378,16.721-10.762,25.945l-19.382,3.901v21.495v21.494
				l19.382,3.901c2.383,9.226,6.039,17.938,10.762,25.946l-10.956,16.477l15.199,15.199l15.2,15.199l16.477-10.955
				c8.008,4.723,16.721,8.379,25.946,10.762l3.901,19.381h21.495h21.495l3.901-19.381c9.226-2.383,17.938-6.039,25.946-10.762
				l16.477,10.955l15.199-15.199l15.199-15.199l-10.955-16.477c4.723-8.009,8.379-16.721,10.762-25.946l19.381-3.901v-21.494
				v-21.495L946.911,280.797z M848.887,381.513c-41.598,0-75.319-33.722-75.319-75.319c0-41.598,33.722-75.32,75.319-75.32
				c41.598,0,75.32,33.723,75.32,75.32C924.206,347.791,890.485,381.513,848.887,381.513z"/>
		</g>
		<g>
			<path style="fill:#FFCD55;" d="M1655.582,306.942c0-10.032,1.764-18.811,5.295-26.335c3.527-7.525,9.566-13.978,18.115-19.369
				c3.344-2.23,7.197-4.55,11.564-6.967c4.363-2.412,8.5-5.247,12.402-8.5c3.9-3.248,7.197-7.15,9.893-11.705
				c2.691-4.55,4.041-9.984,4.041-16.303c0-5.199-0.975-9.798-2.926-13.795c-1.951-3.993-4.508-7.337-7.664-10.032
				c-3.162-2.691-6.784-4.738-10.869-6.132c-4.088-1.394-8.359-2.09-12.818-2.09c-4.646,0-9.059,0.696-13.238,2.09
				c-4.18,1.393-8.039,3.301-11.565,5.714c-3.532,2.416-6.688,5.251-9.476,8.499c-2.787,3.253-5.111,6.646-6.967,10.173
				l-16.441-10.869c2.412-5.757,5.664-10.869,9.754-15.328c4.084-4.459,8.73-8.221,13.934-11.286
				c5.199-3.065,10.729-5.387,16.582-6.967c5.852-1.577,11.844-2.369,17.975-2.369c6.871,0,13.656,1.071,20.344,3.205
				c6.689,2.138,12.633,5.434,17.836,9.893c5.199,4.459,9.379,10.033,12.541,16.722c3.156,6.689,4.738,14.587,4.738,23.688
				c0,7.064-0.977,13.099-2.928,18.115c-1.949,5.016-4.506,9.384-7.662,13.098c-3.162,3.719-6.877,6.968-11.148,9.754
				c-4.275,2.787-8.734,5.482-13.377,8.082c-3.344,1.859-6.688,3.811-10.033,5.853c-3.344,2.047-6.27,4.507-8.777,7.385
				c-2.508,2.883-4.555,6.366-6.131,10.451c-1.582,4.089-2.369,9.196-2.369,15.327H1655.582z M1656.139,365.745v-32.327h20.623
				v32.327H1656.139z"/>
		</g>
		<g>
			<path style="fill:#FFCD55;" d="M1685.248,741.304c0-8.577,1.508-16.082,4.527-22.515c3.016-6.433,8.178-11.95,15.486-16.559
				c2.857-1.906,6.152-3.891,9.887-5.956c3.73-2.063,7.266-4.486,10.602-7.267c3.336-2.777,6.154-6.113,8.459-10.007
				c2.301-3.891,3.453-8.536,3.453-13.938c0-4.445-0.832-8.376-2.5-11.794c-1.668-3.413-3.854-6.272-6.553-8.576
				c-2.703-2.301-5.799-4.051-9.291-5.242c-3.496-1.191-7.148-1.786-10.961-1.786c-3.971,0-7.742,0.595-11.316,1.786
				c-3.574,1.191-6.871,2.822-9.887,4.885c-3.02,2.066-5.719,4.489-8.102,7.267c-2.381,2.78-4.369,5.681-5.955,8.696l-14.057-9.292
				c2.062-4.922,4.842-9.292,8.338-13.103c3.492-3.813,7.465-7.029,11.912-9.649c4.445-2.621,9.174-4.606,14.176-5.956
				c5.004-1.348,10.127-2.025,15.367-2.025c5.875,0,11.676,0.916,17.393,2.74c5.719,1.827,10.801,4.646,15.248,8.457
				c4.445,3.813,8.02,8.577,10.721,14.295c2.699,5.719,4.051,12.472,4.051,20.252c0,6.038-0.834,11.197-2.502,15.486
				c-1.668,4.288-3.852,8.022-6.551,11.197c-2.703,3.18-5.879,5.956-9.531,8.339c-3.654,2.383-7.467,4.686-11.436,6.909
				c-2.859,1.59-5.717,3.258-8.576,5.003c-2.859,1.75-5.361,3.854-7.506,6.314c-2.145,2.464-3.893,5.442-5.24,8.934
				c-1.352,3.496-2.025,7.862-2.025,13.104H1685.248z M1685.725,791.574v-27.637h17.631v27.637H1685.725z"/>
		</g>
		<g>
			<path style="fill:#FFCD55;" d="M1389.385,314.691c0-6.353,1.117-11.911,3.354-16.675c2.232-4.765,6.057-8.851,11.469-12.265
				c2.119-1.411,4.559-2.881,7.324-4.411c2.762-1.527,5.381-3.322,7.852-5.382c2.471-2.057,4.559-4.527,6.266-7.411
				c1.703-2.882,2.559-6.322,2.559-10.323c0-3.292-0.619-6.203-1.854-8.734c-1.234-2.528-2.854-4.646-4.852-6.353
				c-2.002-1.704-4.297-3-6.883-3.883c-2.59-0.882-5.293-1.323-8.117-1.323c-2.941,0-5.734,0.441-8.383,1.323
				c-2.646,0.883-5.088,2.09-7.322,3.618c-2.236,1.53-4.235,3.325-6,5.382c-1.764,2.06-3.236,4.207-4.41,6.44l-10.412-6.882
				c1.527-3.645,3.587-6.882,6.176-9.705c2.586-2.823,5.529-5.206,8.824-7.146c3.291-1.941,6.793-3.411,10.498-4.412
				c3.707-0.998,7.5-1.5,11.383-1.5c4.35,0,8.646,0.679,12.881,2.029c4.234,1.354,7.998,3.441,11.293,6.265
				c3.293,2.823,5.939,6.353,7.941,10.588c1.998,4.234,3,9.236,3,14.999c0,4.472-0.618,8.293-1.854,11.47
				c-1.234,3.177-2.854,5.941-4.852,8.294c-2.002,2.354-4.354,4.411-7.059,6.176c-2.709,1.765-5.531,3.472-8.471,5.117
				c-2.117,1.178-4.234,2.413-6.352,3.706c-2.119,1.296-3.971,2.854-5.559,4.676c-1.59,1.825-2.885,4.031-3.883,6.617
				c-1.002,2.589-1.5,5.823-1.5,9.705H1389.385z M1389.738,351.925v-20.47h13.059v20.47H1389.738z"/>
		</g>
		<g>
			<polygon style="fill:#FFC855;" points="1248.402,271.605 1085.934,271.605 1085.934,389.365 1085.934,414.168 1110.738,389.365 
				1248.402,389.365 			"/>
		</g>
		<g>
			
				<linearGradient id="SVGID_00000012454084326755758850000001230515943438315699_" gradientUnits="userSpaceOnUse" x1="584.4155" y1="1753.7036" x2="1493.3809" y2="1753.7036">
				<stop  offset="0" style="stop-color:#40D5E6"/>
				<stop  offset="1" style="stop-color:#5577FF"/>
			</linearGradient>
			<polygon style="fill:url(#SVGID_00000012454084326755758850000001230515943438315699_);" points="1436.51,1647.419 
				1038.898,1647.419 641.287,1647.419 584.416,1859.988 1038.898,1859.988 1493.381,1859.988 			"/>
			<path style="fill:#FFFFFF;" d="M647.552,1703.875h52.033c2.176,0,3.814,1.69,3.408,3.515l-5.039,22.632
				c-0.311,1.397-1.742,2.409-3.408,2.409h-52.922c-2.221,0-3.871-1.758-3.386-3.608l5.928-22.632
				C644.521,1704.838,645.928,1703.875,647.552,1703.875z"/>
			<polygon style="fill:#FFFFFF;" points="723.443,1703.875 762.778,1703.875 757.542,1732.431 717.459,1732.431 			"/>
			<polygon style="fill:#FFFFFF;" points="782.445,1703.875 821.78,1703.875 817.667,1732.431 777.577,1732.469 			"/>
			<polygon style="fill:#FFFFFF;" points="841.448,1703.875 880.783,1703.875 877.791,1732.431 837.708,1732.431 			"/>
			<polygon style="fill:#FFFFFF;" points="900.45,1703.875 939.785,1703.875 937.916,1732.431 897.833,1732.431 			"/>
			<polygon style="fill:#FFFFFF;" points="959.453,1703.875 998.788,1703.875 998.04,1732.431 957.955,1732.469 			"/>
			<polygon style="fill:#FFFFFF;" points="1431.604,1703.875 1372.602,1703.875 1378.959,1732.431 1439.084,1732.431 			"/>
			<polygon style="fill:#FFFFFF;" points="1352.934,1703.875 1313.6,1703.875 1318.836,1732.431 1358.918,1732.431 			"/>
			<polygon style="fill:#FFFFFF;" points="1293.932,1703.875 1254.597,1703.875 1258.711,1732.431 1298.801,1732.469 			"/>
			<polygon style="fill:#FFFFFF;" points="1234.93,1703.875 1195.594,1703.875 1198.586,1732.431 1238.67,1732.431 			"/>
			<polygon style="fill:#FFFFFF;" points="1175.927,1703.875 1136.592,1703.875 1138.462,1732.431 1178.545,1732.431 			"/>
			<polygon style="fill:#FFFFFF;" points="1116.924,1703.875 1077.589,1703.875 1078.337,1732.431 1118.422,1732.469 			"/>
			<polygon style="fill:#FFFFFF;" points="1018.456,1703.875 1057.791,1703.875 1058.443,1732.431 1018.456,1732.431 			"/>
			<polygon style="fill:#FFFFFF;" points="630.247,1753.704 712.44,1753.704 707.759,1783.158 624.005,1783.158 			"/>
			<polygon style="fill:#FFFFFF;" points="1444.438,1753.704 1342.837,1753.704 1348.623,1783.158 1452.152,1783.158 			"/>
			<polygon style="fill:#FFFFFF;" points="1322.518,1753.704 1281.877,1753.704 1286.506,1783.158 1327.918,1783.158 			"/>
			<polygon style="fill:#FFFFFF;" points="1261.557,1753.704 1220.916,1753.704 1224.389,1783.158 1265.8,1783.158 			"/>
			<polygon style="fill:#FFFFFF;" points="1200.596,1753.704 1159.956,1753.704 1162.271,1783.158 1203.682,1783.158 			"/>
			<polygon style="fill:#FFFFFF;" points="1139.636,1753.704 1098.996,1753.704 1100.153,1783.158 1141.564,1783.158 			"/>
			<polygon style="fill:#FFFFFF;" points="617.967,1806.207 701.998,1806.207 695.867,1835.466 610.303,1835.466 			"/>
			<polygon style="fill:#FFFFFF;" points="723.006,1806.207 765.021,1806.207 760.04,1835.466 717.258,1835.466 			"/>
			<polygon style="fill:#FFFFFF;" points="786.03,1806.207 828.045,1806.207 1101.123,1806.207 1102.296,1835.466 781.431,1835.466 
							"/>
			<polygon style="fill:#FFFFFF;" points="1122.154,1806.207 1164.169,1806.207 1166.469,1835.466 1123.687,1835.466 			"/>
			<polygon style="fill:#FFFFFF;" points="1185.177,1806.207 1227.193,1806.207 1230.642,1835.466 1187.86,1835.466 			"/>
			<polygon style="fill:#FFFFFF;" points="1248.201,1806.207 1290.217,1806.207 1294.814,1835.466 1252.033,1835.466 			"/>
			<polygon style="fill:#FFFFFF;" points="1311.225,1806.207 1353.24,1806.207 1358.988,1835.466 1316.205,1835.466 			"/>
			<polygon style="fill:#FFFFFF;" points="1374.248,1806.207 1458.279,1806.207 1465.943,1835.466 1380.379,1835.466 			"/>
			<polygon style="fill:#FFFFFF;" points="1078.763,1753.704 1038.449,1753.704 1038.449,1783.158 1079.535,1783.158 			"/>
			<polygon style="fill:#FFFFFF;" points="1017.803,1753.704 977.163,1753.704 976.005,1783.158 1017.417,1783.158 			"/>
			<polygon style="fill:#FFFFFF;" points="956.842,1753.704 916.202,1753.704 913.888,1783.158 955.299,1783.158 			"/>
			<polygon style="fill:#FFFFFF;" points="895.882,1753.704 855.242,1753.704 851.77,1783.158 893.182,1783.158 			"/>
			<polygon style="fill:#FFFFFF;" points="834.922,1753.704 794.281,1753.704 789.652,1783.158 831.064,1783.158 			"/>
			<polygon style="fill:#FFFFFF;" points="773.961,1753.704 733.321,1753.704 727.535,1783.158 768.946,1783.158 			"/>
			<polygon style="fill:#FFFFFF;" points="649.473,1685.932 656.151,1660.438 675.25,1660.438 669.016,1685.932 			"/>
			<polygon style="fill:#FFFFFF;" points="694.348,1660.438 732.545,1660.438 727.203,1685.932 688.338,1685.932 			"/>
			<polygon style="fill:#FFFFFF;" points="751.644,1660.438 789.841,1660.438 785.5,1685.932 746.635,1685.932 			"/>
			<polygon style="fill:#FFFFFF;" points="808.94,1660.438 847.137,1660.438 843.798,1685.932 804.933,1685.932 			"/>
			<polygon style="fill:#FFFFFF;" points="866.235,1660.438 904.433,1660.438 902.095,1685.932 863.231,1685.932 			"/>
			<polygon style="fill:#FFFFFF;" points="923.531,1660.438 961.729,1660.438 960.393,1685.932 921.528,1685.932 			"/>
			<polygon style="fill:#FFFFFF;" points="980.827,1660.438 1019.024,1660.438 1018.69,1685.932 979.825,1685.932 			"/>
			<polygon style="fill:#FFFFFF;" points="1038.123,1660.438 1076.32,1660.438 1076.988,1685.932 1038.123,1685.932 			"/>
			<polygon style="fill:#FFFFFF;" points="1095.419,1660.438 1133.616,1660.438 1135.286,1685.932 1096.42,1685.932 			"/>
			<polygon style="fill:#FFFFFF;" points="1152.714,1660.438 1190.912,1660.438 1193.583,1685.932 1154.718,1685.932 			"/>
			<polygon style="fill:#FFFFFF;" points="1210.01,1660.438 1248.207,1660.438 1251.881,1685.932 1213.016,1685.932 			"/>
			<polygon style="fill:#FFFFFF;" points="1267.307,1660.438 1305.504,1660.438 1310.178,1685.932 1271.313,1685.932 			"/>
			<polygon style="fill:#FFFFFF;" points="1324.602,1660.438 1362.799,1660.438 1368.475,1685.932 1329.61,1685.932 			"/>
			<polygon style="fill:#FFFFFF;" points="1381.898,1660.438 1420.096,1660.438 1426.773,1685.932 1387.908,1685.932 			"/>
			<rect x="584.416" y="1859.988" style="fill:#4F92F8;" width="908.965" height="12.543"/>
		</g>
		<g>
			
				<rect x="979.071" y="1136.355" transform="matrix(-1 -1.224647e-16 1.224647e-16 -1 2083.2388 2652.6719)" style="fill:#537FFD;" width="125.097" height="379.961"/>
		</g>
		<g>
			
				<linearGradient id="SVGID_00000150060329727739567730000005732523295977080220_" gradientUnits="userSpaceOnUse" x1="468.9286" y1="938.3701" x2="1668.9775" y2="938.3701">
				<stop  offset="0" style="stop-color:#40D5E6"/>
				<stop  offset="1" style="stop-color:#5577FF"/>
			</linearGradient>
			<path style="fill:url(#SVGID_00000150060329727739567730000005732523295977080220_);" d="M539.536,1319.387h1004.168
				c20.998,0,38.021-17.023,38.021-38.021v-685.99c0-20.998-17.023-38.021-38.021-38.021H539.536
				c-20.998,0-38.021,17.023-38.021,38.021v685.99C501.514,1302.363,518.537,1319.387,539.536,1319.387z"/>
		</g>
		<g>
			
				<linearGradient id="SVGID_00000074417775351974877350000015146954259721054892_" gradientUnits="userSpaceOnUse" x1="539.6973" y1="887.7764" x2="1541.627" y2="887.7764">
				<stop  offset="0" style="stop-color:#404B61"/>
				<stop  offset="0.486" style="stop-color:#3C4860"/>
				<stop  offset="1" style="stop-color:#2F3E5C"/>
			</linearGradient>
			<polygon style="fill:url(#SVGID_00000074417775351974877350000015146954259721054892_);" points="539.697,1180.873 
				1541.627,1180.873 1541.627,594.68 539.697,594.68 			"/>
		</g>
		<rect x="760.224" y="1501.977" style="fill:#45BEEC;" width="562.792" height="28.681"/>
		<g>
			<polygon style="fill:#FFCD55;" points="1478.162,552.646 1474.334,552.646 1474.334,505.964 1680.467,505.964 1680.467,410.282 
				1684.297,410.282 1684.297,509.794 1478.162,509.794 			"/>
		</g>
		<g>
			<g>
				<g>
					<path style="fill:#323657;" d="M583.063,1118.244c-0.014-0.006-0.029-0.008-0.049-0.004
						C583.221,1118.33,583.25,1118.338,583.063,1118.244z"/>
				</g>
			</g>
		</g>
		<g>
			<polygon style="fill:#FFCD55;" points="1809.119,398.516 1776.254,398.516 1776.254,394.685 1805.289,394.685 1805.289,365.678 
				1809.119,365.678 			"/>
		</g>
		<g>
			<polygon style="fill:#FFCD55;" points="1588.137,398.516 1555.271,398.516 1555.271,365.678 1559.102,365.678 1559.102,394.685 
				1588.137,394.685 			"/>
		</g>
		<g>
			<polygon style="fill:#FFCD55;" points="1559.115,177.547 1555.285,177.547 1555.285,144.682 1588.123,144.682 1588.123,148.511 
				1559.115,148.511 			"/>
		</g>
		<g>
			<polygon style="fill:#FFCD55;" points="1809.119,177.532 1805.289,177.532 1805.289,148.525 1776.254,148.525 1776.254,144.695 
				1809.119,144.695 			"/>
		</g>
		<g>
			<rect x="1805.289" y="226.604" style="fill:#FFCD55;" width="3.83" height="90.004"/>
		</g>
		<g>
			<rect x="1555.271" y="226.604" style="fill:#FFCD55;" width="3.83" height="90.004"/>
		</g>
		<g>
			<path style="fill:#FFCD55;" d="M1682.381,412.58c-7.754,0-14.064-6.31-14.064-14.065c0-7.756,6.311-14.066,14.064-14.066
				c7.756,0,14.066,6.311,14.066,14.066C1696.447,406.271,1690.137,412.58,1682.381,412.58z M1682.381,388.279
				c-5.643,0-10.234,4.592-10.234,10.236c0,5.643,4.592,10.234,10.234,10.234c5.645,0,10.236-4.592,10.236-10.234
				C1692.617,392.871,1688.025,388.279,1682.381,388.279z"/>
		</g>
		<g>
			<g>
				<g>
					<path style="fill:#FFCD55;" d="M1805.686,1079.858c-4.887-1.369-7.764-6.45-6.418-11.35l0.367-1.335
						c-4.762-3.166-7.004-9.061-5.473-14.629l7.338-26.696l5.301,1.457c7.248-33.735-4.641-87.114-4.762-87.655
						c-4.379-13.644-4.646-28.26-0.746-42.177c10.951-39.083,51.656-61.97,90.738-51.018c39.082,10.951,61.969,51.656,51.02,90.738
						c-3.9,13.918-11.723,26.267-22.623,35.714c-1.5,1.566-38.09,39.858-49.434,72.044l5.141,1.413l-7.338,26.697
						c-1.531,5.569-6.469,9.487-12.182,9.774l-0.367,1.336c-1.35,4.914-6.445,7.813-11.359,6.461l-39.158-10.763
						C1805.715,1079.866,1805.701,1079.862,1805.686,1079.858z M1803.012,1028.508l-6.764,24.611
						c-1.346,4.893,0.787,10.084,5.184,12.627l0.725,0.418l-0.803,2.918c-1.035,3.764,1.158,7.617,4.949,8.703l39.158,10.764
						c3.764,1.034,7.668-1.187,8.703-4.95l0.801-2.92l0.836,0.011c5.08,0.063,9.566-3.309,10.91-8.201l6.766-24.611l-5.27-1.448
						l0.365-1.084c11.041-32.858,48.768-72.338,50.367-74.002c10.65-9.237,18.242-21.224,22.027-34.732
						c10.629-37.935-11.584-77.443-49.52-88.072c-37.934-10.63-77.443,11.585-88.072,49.518
						c-3.785,13.508-3.525,27.693,0.748,41.025c0.143,0.407,12.41,55.642,4.541,89.811l-0.254,1.098L1803.012,1028.508z
						 M1853.07,988.437c-0.436-0.122-0.699-0.204-0.779-0.23c-0.012-0.004-0.023-0.008-0.035-0.011
						c-0.189-0.043-2.477-0.61-6.014-1.989l0.771-2.019c4.188,1.57,7.525,2.504,11.916,3.338l-0.391,2.127
						C1855.939,989.194,1854.061,988.715,1853.07,988.437z"/>
				</g>
				<g>
					
						<rect x="1837.261" y="1016.891" transform="matrix(0.2698 -0.9629 0.9629 0.2698 343.5475 2527.5837)" style="fill:#FFCD55;" width="2.163" height="40.764"/>
				</g>
				<g>
					
						<rect x="1884.55" y="804.241" transform="matrix(0.2701 -0.9628 0.9628 0.2701 612.6417 2420.9343)" style="fill:#FFCD55;" width="36.962" height="4.325"/>
				</g>
				<g>
					
						<rect x="1938.279" y="832.867" transform="matrix(0.8716 -0.4903 0.4903 0.8716 -158.0806 1066.62)" style="fill:#FFCD55;" width="36.961" height="4.326"/>
				</g>
				<g>
					
						<rect x="1840.089" y="784.463" transform="matrix(0.8717 -0.4901 0.4901 0.8717 -157.1 1005.9312)" style="fill:#FFCD55;" width="4.326" height="36.962"/>
				</g>
				<g>
					
						<rect x="1808.076" y="972.456" transform="matrix(0.0427 -0.9991 0.9991 0.0427 779.0596 2760.1528)" style="fill:#FFCD55;" width="43.578" height="2.164"/>
				</g>
				<g>
					
						<rect x="1856.913" y="986.141" transform="matrix(0.4826 -0.8758 0.8758 0.4826 107.3881 2156.2295)" style="fill:#FFCD55;" width="43.579" height="2.163"/>
				</g>
				<g>
					<path style="fill:#FFCD55;" d="M1951.389,940.023l-2.082-0.584c11.969-42.717-13.047-87.207-55.762-99.176l0.582-2.082
						C1937.992,850.473,1963.68,896.158,1951.389,940.023z"/>
				</g>
				<g>
					<path style="fill:#FFCD55;" d="M1933.588,935.035l-2.084-0.584c9.219-32.9-10.047-67.167-42.947-76.386
						c-32.9-9.218-67.168,10.048-76.385,42.948l-2.084-0.583c9.541-34.049,45.004-53.987,79.051-44.447
						C1923.188,865.523,1943.127,900.986,1933.588,935.035z"/>
				</g>
			</g>
		</g>
		<g>
			<g>
				<path style="fill:#FFA155;" d="M342.155,990.691c-4.61,0-8.361-3.751-8.361-8.361c0-4.611,3.751-8.362,8.361-8.362
					c4.611,0,8.362,3.751,8.362,8.362C350.517,986.94,346.766,990.691,342.155,990.691z M342.155,976.244
					c-3.355,0-6.084,2.731-6.084,6.086c0,3.355,2.729,6.084,6.084,6.084c3.356,0,6.085-2.729,6.085-6.084
					C348.24,978.975,345.51,976.244,342.155,976.244z"/>
			</g>
			<g>
				<path style="fill:#FFA155;" d="M271.005,1129.498c-5.344,0-9.704-4.334-9.73-9.683l-0.007-1.457
					c-5.727-1.856-9.673-7.195-9.703-13.274l-0.144-29.148l5.787-0.027c-2.235-36.257-29.447-86.992-29.725-87.506
					c-8.314-12.588-12.736-27.328-12.736-42.543c0-42.729,34.763-77.492,77.492-77.492s77.492,34.763,77.492,77.492
					c0,15.216-4.422,29.957-12.787,42.629c-1.076,2.014-27.292,51.225-29.648,87.073l5.612-0.028l0.144,29.148
					c0.031,6.08-3.864,11.455-9.572,13.369l0.007,1.458c0.026,5.364-4.316,9.751-9.681,9.777l-42.753,0.212
					C271.037,1129.498,271.021,1129.498,271.005,1129.498z M253.709,1078.202l0.133,26.87c0.026,5.342,3.663,10,8.843,11.327
					l0.852,0.219l0.016,3.187c0.02,4.109,3.337,7.393,7.489,7.416l42.753-0.211c4.109-0.021,7.436-3.381,7.416-7.49l-0.016-3.188
					l0.85-0.227c5.167-1.378,8.758-6.07,8.731-11.412l-0.133-26.871l-5.752,0.028l0.062-1.202
					c1.859-36.445,28.889-87.182,30.038-89.324c8.173-12.389,12.464-26.696,12.464-41.465c0-41.475-33.741-75.216-75.215-75.216
					c-41.474,0-75.215,33.741-75.215,75.216c0,14.768,4.291,29.074,12.41,41.374c0.261,0.371,28.386,52.88,30.113,89.753
					l0.056,1.186L253.709,1078.202z M293.071,1023.363c-0.475,0-0.766-0.01-0.854-0.013c-0.013,0-0.026,0-0.039,0
					c-0.204,0.011-2.684,0.085-6.662-0.31l0.209-2.266c4.69,0.402,8.339,0.401,13.026,0l0.209,2.266
					C296.196,1023.316,294.155,1023.363,293.071,1023.363z"/>
			</g>
			<g>
				<rect x="270.557" y="1075.914" style="fill:#FFA155;" width="42.915" height="2.277"/>
			</g>
			<g>
				<rect x="289.737" y="805.185" style="fill:#FFA155;" width="4.554" height="38.913"/>
			</g>
			<g>
				
					<rect x="335.154" y="836.122" transform="matrix(0.707 -0.7072 0.7072 0.707 -489.0277 496.4394)" style="fill:#FFA155;" width="38.912" height="4.553"/>
			</g>
			<g>
				
					<rect x="227.141" y="818.943" transform="matrix(0.7071 -0.7071 0.7071 0.7071 -525.6464 407.791)" style="fill:#FFA155;" width="4.553" height="38.912"/>
			</g>
			<g>
				
					<rect x="264.178" y="991.913" transform="matrix(0.9736 -0.2284 0.2284 0.9736 -224.8115 87.4407)" style="fill:#FFA155;" width="2.277" height="45.878"/>
			</g>
			<g>
				
					<rect x="295.772" y="1013.713" transform="matrix(0.2282 -0.9736 0.9736 0.2282 -742.093 1093.5565)" style="fill:#FFA155;" width="45.878" height="2.277"/>
			</g>
			<g>
				<path style="fill:#FFA155;" d="M378.988,946.357h-2.277c0-46.701-37.995-84.697-84.697-84.697v-2.276
					C339.971,859.384,378.988,898.4,378.988,946.357z"/>
			</g>
			<g>
				<path style="fill:#FFA155;" d="M359.525,946.357h-2.277c0-35.97-29.264-65.234-65.234-65.234s-65.234,29.265-65.234,65.234
					h-2.277c0-37.226,30.285-67.511,67.511-67.511C329.24,878.847,359.525,909.132,359.525,946.357z"/>
			</g>
			<g>
				<polygon style="fill:#FFA155;" points="438.41,983.469 349.378,983.469 349.378,981.191 436.133,981.191 436.133,884.424 
					468.009,884.424 468.009,886.701 438.41,886.701 				"/>
			</g>
		</g>
		<path style="fill:#FFFFFF;" d="M1207.213,313.438h-80.089c-1.571,0-2.846-1.275-2.846-2.846v-3.215
			c0-1.572,1.274-2.846,2.846-2.846h80.089c1.571,0,2.846,1.273,2.846,2.846v3.215
			C1210.059,312.162,1208.784,313.438,1207.213,313.438z"/>
		<path style="fill:#FFFFFF;" d="M1198.918,331.015h-71.794c-1.571,0-2.846-1.274-2.846-2.846v-3.215
			c0-1.571,1.274-2.846,2.846-2.846h71.794c1.572,0,2.846,1.274,2.846,2.846v3.215
			C1201.764,329.74,1200.49,331.015,1198.918,331.015z"/>
		<path style="fill:#FFFFFF;" d="M1180.963,349.06h-53.839c-1.571,0-2.846-1.273-2.846-2.846v-3.214
			c0-1.571,1.274-2.847,2.846-2.847h53.839c1.572,0,2.846,1.275,2.846,2.847v3.214
			C1183.809,347.787,1182.535,349.06,1180.963,349.06z"/>
		<g>
			
				<linearGradient id="SVGID_00000111191148146234640960000016734628223731754420_" gradientUnits="userSpaceOnUse" x1="1515.54" y1="1583.41" x2="1515.54" y2="1327.1965">
				<stop  offset="0" style="stop-color:#3076A1"/>
				<stop  offset="1" style="stop-color:#639C38"/>
			</linearGradient>
			<path style="fill:url(#SVGID_00000111191148146234640960000016734628223731754420_);" d="M1737.775,1556.438h-415.633
				c-15.926,0-28.838-12.911-28.838-28.838v-96.04c0-15.928,12.912-28.838,28.838-28.838h415.633V1556.438z"/>
			<path style="fill:#3A7D8D;" d="M1808.92,1418.549v122.075h7.264v15.823h-301.646c-15.926,0-28.838-12.911-28.838-28.838v-96.045
				c0-15.927,12.912-28.838,28.838-28.838h301.646v15.822H1808.92z"/>
			<path style="fill:#FAE6DE;" d="M1808.912,1540.617h-272.57c-15.729,0-28.479-12.751-28.479-28.479v-65.117
				c0-15.729,12.75-28.479,28.479-28.479h272.57V1540.617z"/>
			<rect x="1643.303" y="1478.969" style="fill:#DECCC5;" width="117.305" height="3.021"/>
			<rect x="1588.311" y="1488.151" style="fill:#DECCC5;" width="125.262" height="3.022"/>
		</g>
		<g>
			
				<linearGradient id="SVGID_00000156557473670195647670000002491448817135648703_" gradientUnits="userSpaceOnUse" x1="-9547.4736" y1="1343.8442" x2="-8992.1221" y2="1343.8442" gradientTransform="matrix(-1 0 0 1 -7742.1479 0)">
				<stop  offset="0" style="stop-color:#FF9F55"/>
				<stop  offset="1" style="stop-color:#FFD255"/>
			</linearGradient>
			<path style="fill:url(#SVGID_00000156557473670195647670000002491448817135648703_);" d="M1285.628,1403.181h414.521
				c16.541,0,29.949-13.409,29.949-29.949v-58.774c0-16.541-13.408-29.949-29.949-29.949h-414.521V1403.181z"/>
			<path style="fill:#F08533;" d="M1214.484,1296.727v94.245h-7.265v12.216h300.534c16.541,0,29.949-13.408,29.949-29.949v-58.778
				c0-16.54-13.408-29.949-29.949-29.949H1207.22v12.216H1214.484z"/>
			<path style="fill:#FAE6DE;" d="M1214.492,1390.967h276.693c16.482,0,29.844-13.362,29.844-29.846v-34.555
				c0-16.482-13.361-29.845-29.844-29.845h-276.693V1390.967z"/>
			
				<rect x="1262.797" y="1343.372" transform="matrix(-1 -1.224647e-16 1.224647e-16 -1 2642.8984 2689.0762)" style="fill:#DECCC5;" width="117.305" height="2.332"/>
			
				<rect x="1309.83" y="1350.461" transform="matrix(-1 -1.224647e-16 1.224647e-16 -1 2744.9219 2703.2549)" style="fill:#DECCC5;" width="125.262" height="2.333"/>
		</g>
		<g>
			
				<linearGradient id="SVGID_00000083072767383695940920000006847631346692283792_" gradientUnits="userSpaceOnUse" x1="1595.6895" y1="1289.1" x2="1595.6895" y2="1138.5988">
				<stop  offset="0" style="stop-color:#3076A1"/>
				<stop  offset="1" style="stop-color:#639C38"/>
			</linearGradient>
			<path style="fill:url(#SVGID_00000083072767383695940920000006847631346692283792_);" d="M1844.176,1284.506h-478.295
				c-10.314,0-18.678-8.363-18.678-18.679v-44.854c0-10.315,8.363-18.679,18.678-18.679h478.295V1284.506z"/>
			<path style="fill:#3A7D8D;" d="M1915.318,1210.76v65.289h7.266v8.462h-312.455c-9.957,0-18.029-8.072-18.029-18.03v-46.153
				c0-9.958,8.072-18.03,18.029-18.03h312.455v8.463H1915.318z"/>
			<path style="fill:#FAE6DE;" d="M1915.311,1276.045h-290.66c-9.957,0-18.029-8.072-18.029-18.03v-29.229
				c0-9.958,8.072-18.03,18.029-18.03h290.66V1276.045z"/>
			<rect x="1749.703" y="1224.695" style="fill:#DECCC5;" width="117.303" height="2.332"/>
			<rect x="1694.711" y="1247.984" style="fill:#DECCC5;" width="125.262" height="1.616"/>
		</g>
		<polygon style="fill:#45BFEC;" points="1193.948,887.776 887.376,710.777 887.376,1064.775 		"/>
		<g>
			
				<rect x="992.841" y="770.036" transform="matrix(-1.836970e-16 1 -1 -1.836970e-16 2129.8601 134.76)" style="fill:#E0E0E0;" width="9.419" height="724.548"/>
		</g>
		<g>
			
				<rect x="698.632" y="1064.226" transform="matrix(-1.836970e-16 1 -1 -1.836970e-16 1835.6511 428.969)" style="fill:#F08533;" width="9.419" height="136.169"/>
		</g>
		<g>
			
				<linearGradient id="SVGID_00000049218331346607193630000007965546269282195616_" gradientUnits="userSpaceOnUse" x1="1245.069" y1="1161.187" x2="1696.7854" y2="1161.187">
				<stop  offset="0" style="stop-color:#FF9F55"/>
				<stop  offset="1" style="stop-color:#FFD255"/>
			</linearGradient>
			<path style="fill:url(#SVGID_00000049218331346607193630000007965546269282195616_);" d="M1667.785,1202.293h-343.971
				c-9.695,0-17.556-7.86-17.556-17.557v-47.1c0-9.695,7.86-17.556,17.556-17.556h343.971V1202.293z"/>
			<path style="fill:#F08533;" d="M1719.537,1128.546v65.288h5.285v8.463h-222.355c-9.973,0-18.057-8.084-18.057-18.057v-46.1
				c0-9.973,8.084-18.057,18.057-18.057h222.355v8.462H1719.537z"/>
			<path style="fill:#FAE6DE;" d="M1719.533,1193.831h-209.455c-8.342,0-15.105-6.763-15.105-15.104v-35.079
				c0-8.343,6.764-15.104,15.105-15.104h209.455V1193.831z"/>
			<rect x="1599.059" y="1142.481" style="fill:#DECCC5;" width="85.334" height="2.333"/>
			<rect x="1559.055" y="1165.771" style="fill:#DECCC5;" width="91.123" height="1.615"/>
		</g>
		<g>
			<path style="fill:#EDEDED;" d="M1329.682,460.334c0,0,7.598-13.945,11.919-18.964c4.321-5.018,18.679-8.782,16.728-15.194
				c-1.951-6.413-21.188-3.625-26.486,2.648c-5.297,6.273-21.467,8.503-22.025,11.151c-0.557,2.649,5.615,17.147,9.081,19.517
				C1322.363,461.861,1329.682,460.334,1329.682,460.334z"/>
			<path style="fill:#EDEDED;" d="M1361.975,472.143c0,0,12.373-9.811,18.332-12.701c5.959-2.89,20.631-0.643,21.387-7.303
				c0.756-6.66-18.008-11.74-25.359-8.086c-7.354,3.653-23.08-0.721-24.643,1.488c-1.564,2.209-1.656,17.966,0.584,21.518
				C1354.514,470.609,1361.975,472.143,1361.975,472.143z"/>
			<path style="fill:#EEA886;" d="M1334.491,497.688c0,0-5.402-36.943-5.158-43.353c0.069-1.83-11.117-1.15-10.595,2.37
				c1.139,7.663-4.024,37.359-3.127,42.796C1316.508,504.936,1334.951,501.111,1334.491,497.688z"/>
			<path style="fill:#EEA886;" d="M1351.418,508.306c0,0,10.123-35.872,12.482-41.837c1.049-2.655-9.266-6.768-10.664-2.032
				c-2.195,7.431-18.529,32.69-19.865,38.035C1332.035,507.818,1350.48,511.631,1351.418,508.306z"/>
			<path style="fill:#323657;" d="M1344.389,533.235c0,0,10.873-36.663,12.547-40.566l-17.147-10.595c0,0-7.946,23.419-9.062,29.274
				C1329.611,517.204,1344.389,533.235,1344.389,533.235z"/>
			<path style="fill:#2E334D;" d="M1040.878,436.369c0,0,16.558,4.187,24.436,16.708c7.878,12.522,14.687,26.943,29.489,33.485
				c14.803,6.543,14.898,23.401,13.746,26.002c-1.153,2.6-46.628,53.718-56.55,55.693c-9.922,1.975-28.5,0.602-26.513-12.533
				c1.987-13.135,21.457-41.391,10.528-55.645c-10.928-14.254-13.683-27.386-13.683-27.386L1040.878,436.369z"/>
			<path style="fill:#EEA886;" d="M1043.765,497.503c0,0,0.486-0.161,1.295-0.235c0.939-0.088,2.313-0.061,3.872,0.465
				c0.389,0.13,0.907,0.395,1.515,0.753c3.935,2.318,13.246,8.612,14.504,8.763c1.454,0.173,0.226-21.547,0.226-21.547
				s-4.958-8.77-5.581-14.543S1043.765,497.503,1043.765,497.503z"/>
			<path style="fill:#323657;" d="M1160.24,520.201c0,0,18.192-12.756,39.52-8.782c21.328,3.973,23.629,13.943,30.947,14.396
				c7.318,0.451,31.783-1.641,51.857,4.215c20.073,5.854,37.011,6.482,39.311,4.809c2.301-1.672-12.546-35.129-12.546-39.728
				l24.884-6.482c0,0,7.109,29.691,9.896,36.384c2.981,7.157,8.713,20.632,0.559,32.341c-8.156,11.71-30.947,6.433-44.748,8.793
				c-13.801,2.359-75.572,0.846-86.359,0.268c-11.709-0.627-47.048-2.3-47.048-2.3L1160.24,520.201z"/>
			<path style="fill:#EEA886;" d="M1010.827,454.09c0,0-1.161,17.972,2.83,23.361c1.596,2.156,2.68,3.33,3.407,3.962
				c1.023,0.891,1.817,2.015,2.273,3.292c1.233,3.458,1.991,8.322,2.973,9.361c1.071,1.133,4.174-1.748,5.298-1.755
				c1.124-0.007,12.07,9.441,14.688,7.507c2.617-1.934,18.589-18.139,17.246-29.249c-1.342-11.11-6.243-27.699-24.225-27.598
				C1017.335,443.073,1012.202,449.621,1010.827,454.09z"/>
			<path style="fill:#5A954B;" d="M1065.167,539.857c0.345,0.737,6.957,11.295,14.2,17.422c3.007,2.545,6.121,4.324,8.941,4.324
				c0.861,0,1.7,0.013,2.518,0.033c8.312,0.224,14.698,1.497,25.92,2.058c11.657,0.581,39.938-1.046,40.775-1.046
				c0.836,0,8.991,1.464,8.991,1.464c2.927-3.555-4.81-43.702-6.273-43.911c-1.464-0.209-10.874,3.346-19.865,1.882
				c-8.991-1.464-12.546-2.3-25.929-17.982c-13.382-15.683-26.765-19.655-32.411-18.401c-5.646,1.255-16.868,0-16.868,0
				S1064.68,538.81,1065.167,539.857z"/>
			
				<rect x="931.9" y="574.986" transform="matrix(-1 -1.224647e-16 1.224647e-16 -1 1933.2227 1157.5)" style="fill:#EBE2D8;" width="69.422" height="7.527"/>
			<polygon style="fill:#EBE2D8;" points="915.075,509.219 939.034,580.125 931.875,582.475 907.935,511.603 			"/>
			<path style="fill:#2E334D;" d="M1018.382,466.959c0,0-3.351,8.683-5.126,9.879c0,0-6.467-6.84-2.313-23.717
				c4.154-16.878,19.82-18.465,29.935-16.752c12.591,2.134,25.267,44.732,24.613,48.883c-0.654,4.149-14.761-22.016-27.121-19.91
				C1026.011,467.447,1025.911,468.137,1018.382,466.959z"/>
			<path style="fill:#A77860;" d="M1045.06,497.268c0.939-0.088,2.249,0.034,3.808,0.559c0.389,0.131,0.971,0.301,1.579,0.659
				c2.892-4.509,5.569-15.201,5.659-15.564C1054.178,488.775,1045.06,497.268,1045.06,497.268z"/>
			<path style="fill:#2B4724;" d="M1079.367,557.279c3.007,2.545,6.121,4.324,8.941,4.324c0.861,0,1.7,0.013,2.518,0.033
				l-3.423-33.281L1079.367,557.279z"/>
			<path style="fill:#EEA886;" d="M1064.354,525.063c0,0-1.031,26.217-1.555,30.616c-0.523,4.382,0.049,6.97-4.686,7.388
				c-4.684,0.414-37.553,4.183-47.59,5.855c-10.037,1.673-13.818-2.255-15.63-2.822c-1.813-0.568-13.189-0.916-16.571,0.209
				c-3.555,1.181-8.155,3.973-11.083,4.391c-2.928,0.418-6.97,2.057-6.691,3.45c0.279,1.394,6.761,1.185,8.712,1.185
				c1.952,0,33.143-0.836,34.676-0.069c1.949,0.975,27.149,2.231,31.749,2.231s41.124,2.858,44.33-1.603
				c3.206-4.461,7.319-50.464,6.9-52.555C1086.497,521.246,1066.624,520.174,1064.354,525.063z"/>
			<path style="fill:#5A954B;" d="M1062.729,525.638c0,0-1.255-34.935,10.106-34.502c14.365,0.547,16.519,18.122,14.567,37.22
				C1087.402,528.356,1065.935,528.565,1062.729,525.638z"/>
		</g>
		<g>
			<g>
				<g>
					<path style="fill:#486EDB;" d="M1673.229,1326.471c0,0,35.084,102.353,37.324,113.909
						c2.449,12.638,29.891,103.616,29.891,103.616s57.588-56.39,75.572-70.697
						C1834.002,1458.992,1698.039,1323.465,1673.229,1326.471z"/>
				</g>
			</g>
			<g>
				<g>
					<path style="fill:#152B3D;" d="M1654.984,1723.218c0,0-11.633-4.723-16.408-6.744c-4.775-2.021-5.492-6.459-7.5-3.501
						s-11.982,12.047-17.361,13.2s-40.316,6.453-41.004,14.372c-0.686,7.919,15.598,10.701,38.59,11.902
						c22.971,1.201,23.543,7.135,38.871,3.22C1654.947,1754.447,1654.984,1723.218,1654.984,1723.218z"/>
				</g>
			</g>
			<g>
				<g>
					<path style="fill:#152B3D;" d="M1993.822,1594.253c0,0-5.756,10.721-8.209,15.13c-2.453,4.408-6.82,4.639-4.168,6.89
						s10.402,12.848,10.957,18.17c0.555,5.323,2.037,39.671,9.627,41.161c7.588,1.49,11.977-13.971,15.537-36.086
						c3.557-22.095,9.355-22.029,7.168-37.264C2024.051,1597.507,1993.822,1594.253,1993.822,1594.253z"/>
				</g>
			</g>
			<g>
				<g>
					<path style="fill:#EEA886;" d="M1608.174,1349.946c0,0-5.586-10.192-6.488-11.723c-0.9-1.53-5.371-3.67-10.719-5.68
						c-5.348-2.011-13.473-2.332-14.271-1.755c-0.799,0.576-1.873,0.789-2.709,3.176c-0.834,2.386-0.229,4.862-0.229,4.862
						s-2.412,2.458-1.434,5.454c0,0-2.164,2.416-0.498,5.637c0,0-2.047,2.416-0.639,4.654c0,0,4.479,2.151,5.904,3.427
						c1.427,1.274,11.047,5.113,20.84,7.374C1597.932,1365.373,1608.643,1368.296,1608.174,1349.946z"/>
				</g>
			</g>
			<g>
				<g>
					<path style="fill:#CF8C6C;" d="M1592.164,1345.916c0,0,0.58,5.81,1.568,7.359c0.988,1.549-11.133,6.68-11.133,6.68
						S1585.121,1346.81,1592.164,1345.916z"/>
				</g>
			</g>
			<g>
				<g>
					<path style="fill:#323657;" d="M1795.162,1420.398c9.518,7.171,22.293,35.252,31.211,57.191
						c0.195,0.395,21.428,43.363,29.498,55.417c12.123,18.104,27.225,16.488,53.231,26.372c21.13,8.029,87.966,32.173,87.966,32.173
						l-15.646,31.136c0,0-101.168-23.194-133.547-36.618c-16.416-6.806-70.65-52.55-70.658-52.556l0,0
						c-6.758-5.541-12.865-10.924-18.07-15.717h-0.004c-4.141-3.81-7.711-7.243-10.594-10.081c-5.166-5.091-8.105-8.269-8.105-8.269
						S1787.174,1414.374,1795.162,1420.398z"/>
				</g>
			</g>
			<g>
				<g>
					<path style="fill:#486EDB;" d="M1712.916,1285.816l-28.666,72.446c0,0-1.428,10.039-22.354,3.257
						c-21.363-6.923-55.609-16.044-55.609-16.044s-12.109,25.433-9.584,26.905c7.309,4.263,66.234,26.222,90.801,32.92
						c19.49,5.314,59.474-99.252,59.474-99.252L1712.916,1285.816z"/>
				</g>
			</g>
			<g>
				<g>
					<path style="fill:#323657;" d="M1662.193,1570.943c-0.43-12.105,13.188-46.259,23.451-66.975l0,0
						c16.096-33.098,32.453-67.542,32.453-67.542s93.426-0.048,93.264,9.956c-0.309,18.967-44.305,65.224-51.541,73.603
						l-4.799-0.246c0,0-17.303,16.625-24.344,29.384c-10.275,18.619-15.385,31.532-22.127,55.856
						c-6.039,21.781-47.59,124.321-47.59,124.321l-38.703-13.338C1622.258,1715.963,1662.861,1589.73,1662.193,1570.943z"/>
				</g>
			</g>
			<g>
				<g>
					<path style="fill:#443C7D;" d="M1816.016,1440.392c0,0-63.77-68.01-58.277-111.979c0.445-3.559,0.664-7.074,0.67-10.532
						c0.014-4.524-0.334-8.952-1.002-13.258c-3.998-25.749-19.533-47.042-38.861-57.587c0,0,0.184-5.617-26.66,20.172
						c-1.48,1.423-16.441,27.74-18.477,56.361c-2.492,35.02,7.539,42.049,19.898,68.68c9.033,19.463,22.033,36.413,24.791,44.179
						C1718.098,1436.427,1725.268,1447.886,1816.016,1440.392z"/>
				</g>
			</g>
			<g>
				<g>
					<path style="fill:#EEA886;" d="M1690.203,1244.81c0,0,0.324,1.427,0.785,3.642c0.342,1.631,0.756,3.686,1.176,5.914
						c1.133,6.04,2.275,13.338,1.961,16.779c-0.586,6.434,23.762-23.012,23.762-23.012s-4.471-20.385-5.787-43.684
						C1710.787,1181.15,1690.203,1244.81,1690.203,1244.81z"/>
				</g>
			</g>
			<g>
				<g>
					<path style="fill:#A77860;" d="M1690.988,1248.451c0.342,1.631,0.756,3.686,1.176,5.914
						c8.246-7.773,14.494-17.002,16.363-19.885C1704.93,1239.311,1690.988,1248.451,1690.988,1248.451z"/>
				</g>
			</g>
			<g>
				<g>
					<path style="fill:#486EDB;" d="M1699.025,1351.902c0.197,0.637,0.482,1.219,0.73,1.791c0.885,2.039,3.197,4.645,5.43,8.482
						c18.975,32.623,39.254,77.223,47.324,108.425c9.197,35.56,14.063,63.677,14.063,63.677l71.229-65.025
						c0,0-24.732-53-50.668-84.594c-28.719-34.985-20.561-114.545-20.561-114.545l-40.98-19.011l-6.107-6.68l-22.404,16.794
						l-12.254,7.946C1684.826,1269.163,1690.789,1325.305,1699.025,1351.902z"/>
				</g>
			</g>
			<g>
				<g>
					<g>
						
							<rect x="1787.203" y="929.381" transform="matrix(-0.061 0.9981 -0.9981 -0.061 3204.3589 -406.9076)" style="fill:#DEDEDE;" width="12.733" height="748.693"/>
					</g>
				</g>
			</g>
			<g>
				<g>
					<g>
						
							<rect x="1779.745" y="1051.356" transform="matrix(-0.0611 0.9981 -0.9981 -0.0611 3318.1987 -270.0378)" style="fill:#DEDEDE;" width="12.734" height="748.694"/>
					</g>
				</g>
			</g>
			<g>
				<g>
					<g>
						
							<rect x="1418.303" y="1337.823" transform="matrix(0.061 -0.9981 0.9981 0.061 49.9881 2742.564)" style="fill:#DEDEDE;" width="128.72" height="13.782"/>
					</g>
				</g>
				<g>
					<g>
						
							<rect x="1519.023" y="1343.982" transform="matrix(0.061 -0.9981 0.9981 0.061 138.4029 2848.8662)" style="fill:#DEDEDE;" width="128.72" height="13.78"/>
					</g>
				</g>
				<g>
					<g>
						
							<rect x="1619.743" y="1350.14" transform="matrix(0.061 -0.9981 0.9981 0.061 226.8301 2955.1819)" style="fill:#DEDEDE;" width="128.721" height="13.78"/>
					</g>
				</g>
				<g>
					<g>
						
							<rect x="1720.463" y="1356.297" transform="matrix(0.061 -0.9981 0.9981 0.061 315.2717 3061.5093)" style="fill:#DEDEDE;" width="128.721" height="13.782"/>
					</g>
				</g>
				<g>
					<g>
						
							<rect x="1821.183" y="1362.456" transform="matrix(0.0611 -0.9981 0.9981 0.0611 403.5822 3167.728)" style="fill:#DEDEDE;" width="128.72" height="13.781"/>
					</g>
				</g>
				<g>
					<g>
						
							<rect x="1921.904" y="1368.615" transform="matrix(0.0611 -0.9981 0.9981 0.0611 492.0005 3274.0398)" style="fill:#DEDEDE;" width="128.72" height="13.78"/>
					</g>
				</g>
				<g>
					<g>
						
							<rect x="2022.624" y="1374.773" transform="matrix(0.0611 -0.9981 0.9981 0.0611 580.4077 3380.3435)" style="fill:#DEDEDE;" width="128.72" height="13.78"/>
					</g>
				</g>
			</g>
			<g>
				<g>
					<g>
						<g>
							<g>
								<g>
									<path style="fill:#EEA886;" d="M1790.318,1441.549c0,0,2.213-1.916,2.771-3.226c0,0,0.834-2.462,1.531-4.175
										c0.225-0.543,0.432-1.012,0.598-1.299c0.688-1.206,2.563-3.646,3.404-7.006c0.844-3.355,0.756-18.771,0.756-18.771
										l-8.346-2.318l-7.504-3.285c0,0-15.033,14.951-16.182,17.988c-0.109,0.298-0.209,0.596-0.279,0.883
										c-0.721,2.665-0.139,4.952-0.359,6.395c-0.076,0.529-0.492,5.852,0.654,6.961c1.588,1.542,3.314,1.967,4.795,1.637
										c0,0,3.246,2.883,6.164,2.998c0,0,2.908,2.756,6.58,1.865C1784.902,1440.195,1788.166,1442.659,1790.318,1441.549z"/>
								</g>
							</g>
						</g>
					</g>
				</g>
			</g>
			<g>
				<g>
					<path style="fill:#486EDB;" d="M1721.436,1292.982c0,0-16.25-1.038-8.172-25.661c10.9-33.228,43.297,0.419,111.732,28.431
						c0,0,19.174,7.75,13.684,28.238c-5.492,20.488-29.779,85.557-31.369,92.104l-27.422-15.08c0,0,12.486-32.297,15.824-49.205
						c3.336-16.908,5.697-32.619,5.697-32.619L1721.436,1292.982z"/>
				</g>
			</g>
			<g>
				<g>
					<path style="fill:#DB9C7C;" d="M1578.119,1331.262c0,0,13.428,5.426,12.822,7.697c-0.607,2.271-2.207,2.737-2.207,2.737
						l4.514,4.741c0,0,1.217,4.826-4.396,4.741c0,0,1.604,4.39-3.806,3.663c0,0-0.234,3.368-2.799,3.473
						c-2.564,0.105-11.061-3.742-11.061-3.742s-1.625-1.582,0.443-4.617c0,0-1.822-3.07,0.455-5.717c0,0-1.105-2.692,1.379-5.528
						c0,0-1.592-5.903,3.23-7.921C1576.695,1330.789,1577.555,1331.029,1578.119,1331.262z"/>
				</g>
			</g>
			<g>
				<g>
					<path style="fill:#EEA886;" d="M1601.283,1338.008c0,0-9.9,0.889-15.092,3.748c-1.174,0.646-2.195,1.487-2.037,2.822
						c0.157,1.334,2.291,2.799,6.6,2.633c4.307-0.166,9.951,1.592,9.951,1.592S1605.084,1347.334,1601.283,1338.008z"/>
				</g>
			</g>
			<g>
				<g>
					<path style="fill:#EEA886;" d="M1665.965,1192.814c0,0-7.549,14.076-3.785,16.253c3.109,1.799-3.602,15.61-4.479,17.866
						s5.635,3.879,7.02,5.326s5.525,19.287,10.885,19.813c5.359,0.525,29.488-7.929,36.047-14.781s11.881-37.745,7.463-50.76
						C1714.695,1173.518,1679.291,1168.227,1665.965,1192.814z"/>
				</g>
			</g>
			<g>
				<g>
					<path style="fill:#202338;" d="M1664.377,1195.703c0,0-2.871-10.221,11.162-21.516c14.031-11.296,35.424,2.297,38.104,4.375
						c2.385,1.848,16.643,13.684,11.203,30.974c-9.092,28.892-9,27.69-9,27.69s-3.934-17.432-9.202-18.646
						c-5.716-1.317-13.534-2.229-13.534-2.229s4.928-13.18-2.826-15.025C1682.527,1199.48,1672.211,1192.773,1664.377,1195.703z"/>
				</g>
			</g>
			<g>
				<g>
					<path style="fill:#EEA886;" d="M1696.453,1217.299c0.383-1.542,2.137-8.443,7.543-7.421c5.404,1.022,3.605,9.515-0.57,14.479
						C1699.252,1229.32,1694.318,1225.901,1696.453,1217.299z"/>
				</g>
			</g>
			<g>
				<path style="fill:#202338;" d="M1714.771,1179.489c0,0,18.736,3.825,15.672,17.995c-3.063,14.17-11.365,30.078-12.557,33.402
					C1716.695,1234.213,1714.771,1179.489,1714.771,1179.489z"/>
			</g>
		</g>
		<g>
			<path style="fill:#EEA886;" d="M1127.617,1254.7c0,0-5.6-0.634-8.239-0.489c-2.639,0.143-14.34,6.713-18.281,6.522
				c-3.941-0.19-30.282-8.798-31.503-9.485s0.325-2.57,0.325-2.57l58.279-5.715L1127.617,1254.7z"/>
			<g>
				<path style="fill:#4B7D3F;" d="M1174.461,1160.766l6.014,61.387c0,0,2.626,7.586-14.565,10.378
					c-17.548,2.851-44.965,8.813-44.965,8.813s0.455,20.469,2.767,20.594c6.688,0.358,56.489-8.076,76.212-12.242
					c15.647-3.307,5.843-87.001,5.843-87.001L1174.461,1160.766z"/>
			</g>
			<path style="fill:#EEA886;" d="M1126.773,1234.08c0,0-5.444,1.457-8.075,1.707c-2.632,0.25-15.177-4.512-19.047-3.739
				c-3.869,0.772-28.642,13.192-29.748,14.054c-1.105,0.861,0.703,2.494,0.703,2.494l58.482-2.993L1126.773,1234.08z"/>
			<g>
				<g>
					<g>
						<path style="fill:#292C47;" d="M1191.397,1558.631c0,0-12.126,7.367-17.623,10.117c-5.497,2.749-26.974,3.776-29.072,5.819
							c-2.099,2.042-1.244,8.455,2.325,9.068s29.71,2.661,38.4,0.52c8.69-2.143,25.025,1.091,28.62-0.178
							c3.594-1.27,1.033-20.696-0.415-25.046C1212.185,1554.582,1191.397,1558.631,1191.397,1558.631z"/>
					</g>
				</g>
			</g>
			<g>
				<g>
					<g>
						<path style="fill:#3D416B;" d="M1190.286,1550.689l1.112,7.941c0,0,16.364,2.857,21.28,0.283l-1.324-8.25L1190.286,1550.689z"
							/>
					</g>
				</g>
			</g>
			<path style="fill:#292C47;" d="M1158.009,1272.369c-0.459,5.494-0.824,17.484-1.099,30.086c-0.06,2.803-0.115,5.633-0.163,8.432
				c-0.314,16.969-0.466,32.674-0.466,32.674c0.8,21.338,4.178,67.518,10.534,77.895c8.574,13.998,18.52,130.49,18.52,130.49
				l31.49,3.381c0,0,1.952-77.88-2.753-98.219c-5.248-22.715-15.342-53.678-9.576-74.34c3.618-12.964,11.161-54.697,11.161-54.697
				s8.063-46.936-0.306-82.959C1213.26,1236.11,1158.009,1272.369,1158.009,1272.369z"/>
			<g>
				<g>
					<g>
						<path style="fill:#292C47;" d="M1137.306,1558.631c0,0-12.126,7.367-17.623,10.117c-5.497,2.749-26.974,3.776-29.072,5.819
							c-2.099,2.042-1.244,8.455,2.325,9.068s29.71,2.661,38.399,0.52c8.689-2.143,25.025,1.091,28.62-0.178
							c3.594-1.27,1.033-20.696-0.415-25.046S1137.306,1558.631,1137.306,1558.631z"/>
					</g>
				</g>
			</g>
			<g>
				<g>
					<g>
						<path style="fill:#3D416B;" d="M1136.193,1550.689l1.112,7.941c0,0,16.363,2.857,21.281,0.283l-1.325-8.25L1136.193,1550.689z
							"/>
					</g>
				</g>
			</g>
			<path style="fill:#292C47;" d="M1129.421,1554.308h32.291c0,0,10.84-62.441,11.73-89.953c0,0,0,0,0-0.005
				c0.1-2.989,0.077-5.563-0.087-7.604c-0.47-5.833-1.164-12.228-1.803-18.846c-0.004-0.045-0.009-0.096-0.018-0.141
				c-1.899-19.689-3.3-41.314,3.222-55.956c5.477-12.296,19.042-52.478,19.042-52.478s14.843-45.249,11.835-82.113
				c-0.754-9.205-58.124,13.939-58.124,13.939c-1.255,5.367-5.094,22.259-6.454,34.787c-7.768,71.578-4.861,118.21-4.861,118.21
				C1140.631,1429.955,1129.421,1554.308,1129.421,1554.308z"/>
			<g>
				<path style="fill:#CFBEB6;" d="M1152.519,1108.541c0,0-11.212,26.628-13.517,40.891c-2.305,14.264,7.146,53.311,7.574,61.38
					c1.326,25.034,1.935,52.723,1.935,52.723l54.662,24.364c0,0,5.811-22.256,9.705-49.466c3.894-27.21,1-50.745-1.428-66.397
					c-7.611-49.098-38.337-72.85-38.337-72.85L1152.519,1108.541z"/>
			</g>
			<g>
				<path style="fill:#EEA886;" d="M1111.061,1060.614c0,0-3.792,14.665,0.165,15.825c3.269,0.958,0.19,15.191-0.11,17.467
					c-0.301,2.275,6.062,2.307,7.664,3.328c1.602,1.023,9.425,16.529,14.482,15.809c5.056-0.721,25.385-13.933,29.888-21.72
					c4.503-7.786,2.463-37.444-4.533-48.442C1151.618,1031.883,1117.81,1034.966,1111.061,1060.614z"/>
			</g>
			<g>
				<path style="fill:#EEA886;" d="M1141.9,1096.744c0,0,0.393,1.438,0.958,3.66c0.237,0.932,0.506,2,0.79,3.158
					c0.214,0.886,0.442,1.821,0.667,2.785c0.082,0.346,0.164,0.693,0.246,1.049c0.37,1.625,0.744,3.323,1.082,4.994
					c0.876,4.33,1.529,8.498,1.415,10.885c-0.301,6.549,23.063-24.404,23.063-24.404s-5.45-20.465-7.832-44.034
					C1159.905,1031.272,1141.9,1096.744,1141.9,1096.744z"/>
			</g>
			<g>
				<path style="fill:#292C47;" d="M1110.358,1063.762c0,0-10.572-12.222-0.183-25.782s38.746-1.243,41.607-1.212
					c2.861,0.031,18.093-2.692,17.282,26.02c-0.722,25.555-1.629,24.529-1.629,24.529s-8.229-10.804-11.528-12.146
					c-5.153-2.096-14.55,1.028-14.55,1.028s1.579-13.249-5.981-13.208C1127.817,1063.033,1116.918,1059.303,1110.358,1063.762z"/>
			</g>
			<g>
				<path style="fill:#EEA886;" d="M1147.25,1067.383c0.22-1.818,0.493-9.468,7.661-6.782c7.167,2.687,0.533,18.61-0.494,19.048
					S1145.401,1082.682,1147.25,1067.383z"/>
			</g>
			<path style="fill:#23263D;" d="M1145.021,1272.42c0,0,2.509-11.799,2.995-13.564l73.759,12.273l-0.756,9.534
				C1221.019,1280.663,1167.875,1277.481,1145.021,1272.42z"/>
			<path style="fill:#5A954B;" d="M1221.992,1213.422c0,0-3.941,51.313,22.142,106.457c3.185,6.732-48.832,6.381-48.832,6.381
				L1221.992,1213.422z"/>
			<g>
				<path style="fill:#5A954B;" d="M1146.003,1167.767c0.965,5.663,1.802,11.384,2.52,17.103v0.005
					c1.436,11.402,2.414,22.842,3.05,34.001c0.069,1.164,0.128,2.324,0.188,3.479c0.096,1.876,0.183,3.742,0.261,5.599
					c0.101,2.474,0.188,4.925,0.256,7.356c1.481,50.753,20.249,90.739,20.249,90.739s37.288,2.554,46.887-2.665
					c0,0,6.689-57.15,3.648-113.651c-0.232-4.363-0.525-8.722-0.883-13.048c-0.004-0.01-0.004-0.01-0.004-0.01
					c-3.787-45.758-21.68-90.005-49.063-97.488C1172.463,1099.799,1140.927,1137.998,1146.003,1167.767z"/>
			</g>
			
				<rect x="1025.299" y="1247.266" transform="matrix(-0.9992 0.0404 -0.0404 -0.9992 2197.6719 2459.0562)" style="fill:#807066;" width="97.396" height="8.921"/>
			
				<rect x="964.529" y="1206.351" transform="matrix(-0.338 -0.9412 0.9412 -0.338 216.1103 2573.6389)" style="fill:#807066;" width="97.396" height="8.921"/>
			<path style="fill:#191B2B;" d="M1158.586,1408.672c2.743,17.75,14.591,54.856,14.856,55.678c0.1-2.989,0.077-5.563-0.087-7.604
				c-0.47-5.833-1.164-12.228-1.803-18.846c-0.004-0.045-0.009-0.096-0.018-0.141c-0.616-5.756-4.742-16.363-7.485-23.574
				c-2.771-7.271-5.463-36.102-5.463-36.102S1155.811,1390.722,1158.586,1408.672z"/>
			<path style="fill:#A77860;" d="M1144.561,1107.396c0.37,1.625,0.744,3.323,1.082,4.994c6.869-4.721,14.76-17.262,15.249-18.043
				C1158.093,1098.414,1144.766,1107.256,1144.561,1107.396z"/>
			<path style="fill:#395E2F;" d="M1151.753,1215.99c0.069,1.137,0.128,2.268,0.188,3.396c0.096,1.831,0.183,3.651,0.26,5.464
				c8.371-1.707,24.263-5.975,29.046-14.445c6.517-11.553-9.74-38.539-10.091-39.119c0.15,0.721,6.954,33.949-0.005,37.252
				C1166.643,1210.676,1157.276,1213.607,1151.753,1215.99z"/>
			<path style="fill:#282B45;" d="M1146.134,1131.222c0,0-5.687,28.403-0.685,62.32c4.185,28.378,5.803,48.75,5.803,48.75
				l-2.095,8.007l-3.821-6.15c0,0-6.588-36.354-7.817-51.472c-1.239-15.241-2.545-35.714,6.276-61.615L1146.134,1131.222z"/>
			<path style="fill:#282B45;" d="M1146.507,1131.248c0,0-0.701,0.906-1.832,1.252c-1.132,0.346-3.065-1.256,1.677-9.956
				L1146.507,1131.248z"/>
			<g>
				<path style="fill:#EDDAD3;" d="M1169.308,1095.629c0,0-14.4,18.318-23.859,23.305l0.37,15.419l27.294-35.167L1169.308,1095.629z
					"/>
			</g>
			<path style="fill:#5A954B;" d="M1200.578,1145.92c-1.111-7.006-9.283-36.797-26.118-32.414
				c-16.834,4.381-12.088,24.646-8.417,39.918c3.841,15.98,17.601,54.575,15.202,56.979c-2.4,2.404-21.882,11.239-26.129,12.7
				c-4.247,1.461-31.25,10.035-33.331,10.929c-2.034,0.874,10.447,22.96,10.447,22.96s67.294-22.947,78.71-30.369
				C1222.357,1219.203,1200.578,1145.92,1200.578,1145.92z"/>
		</g>
		<g>
			<path style="fill:#202338;" d="M332.718,1729.885c0,0-4.915,9.17-8.126,12.809c-3.211,3.64-15.508,10.146-15.575,20.953
				c-0.072,11.722,20.729,8.469,28.864,8.041c8.135-0.429,8.75-6.69,12.176-13.327c3.425-6.637,6.877-5.513,7.52-10.864
				c0.642-5.353-3.317-17.611-3.317-17.611H332.718z"/>
			<g>
				<path style="fill:#323657;" d="M455.912,1417.444c0,0-22.913-53.396-25.672-66.536c-1.25-5.954-4.687-20.759-6.864-32.918
					c-0.719-4.006-1.322-8.131-1.836-12.17c-0.003-0.01,0-0.016,0-0.016c-2.043-16.127-2.565-30.838-2.565-30.838
					s-12.167-41.705,13.904-44.25c0,0,9.288,3.22,9.601,3.951c4.392,10.253,6.12,36.402,6.273,42.059
					c0.124,4.595,6.869,50.956,6.967,52.596c0.191,3.186,7.121,19.896,10.843,32.293c8.109,26.997,12.385,48.298,12.385,48.298
					L455.912,1417.444z"/>
			</g>
			<rect x="403.973" y="1324.793" style="fill:#E2E3ED;" width="117.511" height="102.793"/>
			<g>
				<g>
					<rect x="480.235" y="1377.76" style="fill:#AAB1E0;" width="6.542" height="31.612"/>
				</g>
			</g>
			<g>
				<g>
					<rect x="489.323" y="1386.07" style="fill:#AAB1E0;" width="6.541" height="23.302"/>
				</g>
			</g>
			<g>
				<g>
					<rect x="498.36" y="1373.813" style="fill:#AAB1E0;" width="6.542" height="35.56"/>
				</g>
			</g>
			<path style="fill:#EEA886;" d="M494.479,1421.23c0,0-0.674,13.85-8.121,16.251c-7.446,2.401-15.551,0.259-18.98-1.843
				c-3.429-2.102-12.058-8.198-8.837-12.033C468.878,1411.3,494.479,1421.23,494.479,1421.23z"/>
			<path style="fill:#EEA886;" d="M490.685,1434.049c0,0,9.298,0.68,8.797-3.264c-0.501-3.942-7.196-2.414-7.196-2.414
				L490.685,1434.049z"/>
			<g>
				<g>
					<rect x="451.813" y="1385.311" style="fill:#AAB1E0;" width="6.541" height="24.062"/>
				</g>
			</g>
			<g>
				<g>
					<rect x="461.122" y="1382.884" style="fill:#AAB1E0;" width="6.542" height="26.488"/>
				</g>
			</g>
			<g>
				<g>
					<rect x="470.555" y="1387.924" style="fill:#AAB1E0;" width="6.542" height="21.448"/>
				</g>
			</g>
			<g>
				<g>
					<rect x="442.184" y="1387.924" style="fill:#AAB1E0;" width="6.542" height="21.448"/>
				</g>
			</g>
			<g>
				<g>
					<g>
						<path style="fill:#AAB1E0;" d="M419.134,1372.072c0.054,0.092,0.113,0.179,0.177,0.262l-0.262,0.178l-7.009,4.727
							l-0.177-0.263l7.008-4.727L419.134,1372.072z"/>
					</g>
					<g>
						<path style="fill:#AAB1E0;" d="M444.414,1373.424c-0.02,0.102-0.032,0.207-0.038,0.314l-0.315-0.038l-20.067-2.386
							l-0.315-0.037c0.02-0.104,0.032-0.208,0.038-0.314l0.314,0.037l20.067,2.387L444.414,1373.424z"/>
					</g>
					<g>
						<path style="fill:#AAB1E0;" d="M464.121,1358.413l-0.235,0.214l-14.892,13.499l-0.235,0.213
							c-0.066-0.083-0.137-0.161-0.213-0.234l0.236-0.213l14.891-13.499l0.235-0.213
							C463.974,1358.262,464.044,1358.34,464.121,1358.413z"/>
					</g>
					<g>
						<path style="fill:#AAB1E0;" d="M488.445,1356.647c0,0.053,0.002,0.105,0.005,0.158h-20.16
							c0.003-0.053,0.005-0.105,0.005-0.158c0-0.054-0.002-0.106-0.005-0.159h20.16
							C488.447,1356.541,488.445,1356.594,488.445,1356.647z"/>
					</g>
					<g>
						<path style="fill:#AAB1E0;" d="M505.807,1340.636l-12.911,14.075l-0.214,0.234c-0.073-0.077-0.15-0.148-0.233-0.215
							l0.215-0.233l12.91-14.075L505.807,1340.636z"/>
					</g>
				</g>
				<g>
					<g>
						<path style="fill:#AAB1E0;" d="M421.259,1368.052c-1.532,0-2.778,1.247-2.778,2.778c0,0.519,0.142,1.004,0.391,1.419
							c0.054,0.091,0.113,0.179,0.178,0.263c0.508,0.666,1.31,1.097,2.21,1.097c1.366,0,2.506-0.992,2.736-2.294
							c0.019-0.103,0.031-0.207,0.037-0.314c0.004-0.057,0.006-0.113,0.006-0.17C424.037,1369.299,422.79,1368.052,421.259,1368.052
							z M423.679,1371.277c-0.21,1.145-1.215,2.014-2.42,2.014c-0.792,0-1.497-0.375-1.948-0.957
							c-0.064-0.083-0.123-0.17-0.177-0.262c-0.214-0.365-0.337-0.789-0.337-1.242c0-1.357,1.104-2.462,2.462-2.462
							c1.357,0,2.461,1.104,2.461,2.462c0,0.045-0.001,0.088-0.003,0.133C423.711,1371.069,423.699,1371.174,423.679,1371.277z"/>
					</g>
				</g>
				<g>
					<g>
						<path style="fill:#AAB1E0;" d="M448.994,1372.126c-0.067-0.082-0.137-0.16-0.212-0.234c-0.502-0.493-1.19-0.799-1.948-0.799
							c-1.367,0-2.506,0.991-2.735,2.294c-0.019,0.103-0.031,0.207-0.037,0.313c-0.004,0.056-0.006,0.113-0.006,0.171
							c0,1.531,1.246,2.777,2.778,2.777c1.532,0,2.778-1.246,2.778-2.777C449.612,1373.211,449.38,1372.604,448.994,1372.126z
							 M446.833,1376.332c-1.357,0-2.461-1.104-2.461-2.461c0-0.045,0.001-0.089,0.004-0.133c0.006-0.107,0.018-0.213,0.038-0.314
							c0.211-1.145,1.215-2.015,2.42-2.015c0.664,0,1.269,0.266,1.712,0.695c0.076,0.073,0.147,0.151,0.213,0.234
							c0.335,0.421,0.536,0.954,0.536,1.532C449.295,1375.229,448.191,1376.332,446.833,1376.332z"/>
					</g>
				</g>
				<g>
					<g>
						<path style="fill:#AAB1E0;" d="M468.606,1356.488c-0.082-1.457-1.295-2.619-2.773-2.619c-1.531,0-2.778,1.246-2.778,2.778
							c0,0.661,0.232,1.268,0.618,1.745c0.066,0.082,0.137,0.16,0.213,0.234c0.502,0.493,1.189,0.799,1.947,0.799
							c1.478,0,2.692-1.162,2.773-2.62c0.004-0.052,0.005-0.105,0.005-0.158C468.611,1356.594,468.61,1356.541,468.606,1356.488z
							 M465.833,1359.109c-0.665,0-1.27-0.266-1.712-0.696c-0.076-0.073-0.147-0.151-0.213-0.233
							c-0.335-0.421-0.536-0.953-0.536-1.532c0-1.358,1.104-2.462,2.461-2.462c1.305,0,2.375,1.02,2.457,2.303
							c0.003,0.053,0.005,0.105,0.005,0.159c0,0.053-0.002,0.105-0.005,0.158C468.208,1358.09,467.138,1359.109,465.833,1359.109z"
							/>
					</g>
				</g>
				<g>
					<g>
						<path style="fill:#AAB1E0;" d="M492.897,1354.711c-0.073-0.075-0.151-0.146-0.232-0.214c-0.479-0.393-1.091-0.628-1.758-0.628
							c-1.478,0-2.691,1.162-2.773,2.619c-0.004,0.053-0.005,0.105-0.005,0.159c0,0.053,0.001,0.106,0.005,0.158
							c0.082,1.458,1.295,2.62,2.773,2.62c1.531,0,2.778-1.247,2.778-2.778C493.685,1355.895,493.384,1355.212,492.897,1354.711z
							 M490.906,1359.109c-1.304,0-2.375-1.02-2.456-2.304c-0.003-0.053-0.005-0.105-0.005-0.158c0-0.054,0.002-0.106,0.005-0.159
							c0.081-1.283,1.152-2.303,2.456-2.303c0.584,0,1.121,0.204,1.543,0.545c0.083,0.066,0.16,0.138,0.233,0.215
							c0.425,0.441,0.686,1.042,0.686,1.702C493.368,1358.005,492.264,1359.109,490.906,1359.109z"/>
					</g>
				</g>
			</g>
			<g>
				<g>
					<path style="fill:#EEA886;" d="M270.333,1419.41c0,0-4.04,7.043-8.83,6.903c-4.073-0.119-9.519,2.494-11.198,3.296
						c-2.245,1.072-10.362,1.99-9.037,4.622c1.325,2.633,13.439-0.908,16.122-1.179c2.683-0.27-4.3,9.133-4.167,11.755
						s17.016,12.131,21.03,5.179c4.014-6.951,3.499-16.727,4.459-17.825c0.96-1.099,3.13-4.956,3.13-4.956L270.333,1419.41z"/>
				</g>
			</g>
			<g>
				<g>
					<path style="fill:#EEA886;" d="M253.759,1442.988c0,0-10.81,22.006-10.242,24.002c0.568,1.995,1.854,2.438,2.955,0.418
						s11.09-20.996,11.09-20.996s-8.201,27.931-8.119,29.672c0.048,1.021,2.479,2.019,3.173,0.985
						c0.693-1.033,10.494-28.329,10.494-28.329s-7.607,26.091-7.076,27.515c0.465,1.246,2.959,1.63,3.663-0.272
						c0.704-1.902,9.21-25.785,9.21-25.785s-4.276,19.279-3.062,20.213c0.742,0.571,2.797,1.528,3.737-3.475
						c0.939-5.004,4.466-16.625,4.466-16.625L253.759,1442.988z"/>
				</g>
			</g>
			<g>
				<path style="fill:#202338;" d="M456.553,1728.816c0,0,10.024,11.192,20.201,13.537c10.177,2.345,17.296,5.336,17.373,11.758
					c0.076,6.423-29.288,10.655-40.934,4.181c-17.382-9.663-19.148-6.75-21.075-11.58c-1.927-4.83,2.314-17.747,2.189-19.283
					C434.153,1725.531,456.553,1728.816,456.553,1728.816z"/>
			</g>
			<g>
				<path style="fill:#81807E;" d="M455.426,1723.463c0,0,1.324,5.243,1.127,5.354c-0.197,0.111-22.933,2.82-22.246-1.388
					c0.558-3.412,1.354-7.12,1.354-7.12L455.426,1723.463z"/>
			</g>
			<g>
				<path style="fill:#81807E;" d="M353.978,1726.346c0,0,0.952,5.002,0.768,5.123c-0.185,0.12-23.056,4.204-22.926,0.051
					c0.103-3.299,2.109-7.144,2.109-7.144L353.978,1726.346z"/>
			</g>
			<g>
				<path style="fill:#292C47;" d="M434.753,1409.591c0,0,8.27,80.301,12.57,107.791c5.028,32.141,6.733,58.697,8.135,75.334
					c1.764,20.924,2.104,123.852,3.339,129.97c1.234,6.118-27.389,1.69-27.389,1.69s-14.081-134.488-19.334-156.771
					c-4.891-20.75-23.044-110.083-27.507-104.417c-4.463,5.666-9.997,104.25-13.303,120.614
					c-3.305,16.365-13.358,144.482-13.358,144.482s-22.781,4.536-28.84-0.593c0,0-2.758-110.411-0.652-141.092
					c0.803-11.693-13.7-140.197,4.897-191.93C343.137,1367.33,434.753,1409.591,434.753,1409.591z"/>
			</g>
			<g>
				<path style="fill:#DBD8E3;" d="M273.372,1420.894c0,0,6.216,7.181,12.054,6.109c5.846-1.071,30.274-75.565,30.504-90.473
					c0.177-12.091,6.794-44.015,6.794-44.015s0,0.018,0.009,0.053c0.009,0.009,0.009,0.026,0.009,0.026
					c0,0.026,0.009,0.044,0.009,0.062c0.655,2.393,9.584,35.521,9.894,51.438c0.328,16.521-0.986,73.35-0.986,73.35l22.126,5.926
					l70.671,0.661l16.131-6.587c0,0-1.763-18.271-2.418-31.106c-0.408-8.158-1.993-22.764-1.586-36.99
					c0,0-0.257-14.996,1.231-21.453c0.16-28.506,1.887-56.736,1.887-56.736c0.957-12.924,1.621-25.006,2.002-36.281
					c-3.118-1.648-6.865-3.579-9.868-5.006c-9.283-4.42-22.216-10.372-30.516-14.182c-4.863-2.231-9.62-3.861-9.62-3.861
					s-33.173-3.18-35.866-3.012c-0.851,0.053-4.996,1.497-10.435,3.57c-11.763,4.464-34.44,13.553-38.054,16.147
					c-5.297,3.791-16.494,93.894-16.998,100.201C289.435,1340.1,273.372,1420.894,273.372,1420.894z"/>
			</g>
			<path style="fill:#1D2033;" d="M438.458,1411.412c0,0-48.547,4.135-91.065,0v13.952c0,0,63.317,6.047,93.194-2.661
				L438.458,1411.412z"/>
			<g>
				<path style="fill:#323657;" d="M397.053,1213.855c0,0,7.896,18.553,13.822,60.017c2.276,15.927,6.496,42.737,9.56,70.099v0.009
					c2.418,21.569,7.937,43.706,9.691,60.217c1.816,17.104,7.29,67.497,7.29,67.497l13.278-8.371
					c1.896-1.753,4.553-4.03,3.782-6.492c-3.65-11.79-10.639-50.766-14.767-84.735c0-0.026-0.009-0.044-0.009-0.071
					c-0.195-1.639-0.39-3.26-0.576-4.871c-0.009-0.08-0.018-0.168-0.027-0.258c-0.779-6.793-1.426-13.304-1.887-19.266
					c-0.354-4.57-0.035-9.035,0.594-13.402c1.85-30.492,2.769-62.639,2.769-62.639c0.975-13.162,1.531-25.458,1.903-36.92
					C442.478,1234.668,400.826,1214.981,397.053,1213.855z"/>
			</g>
			<g>
				<path style="fill:#323657;" d="M316.943,1337.208c-1.029,13.835-26.338,94.606-29.702,94.253
					c-5.905-0.619-25.759-6.871-25.759-6.871s24.449-82.115,25.311-90.77c0.627-6.299,10.656-100.777,15.95-104.572
					c3.057-2.195,25.716-10.227,36.835-14.608c2.033-0.804,8.733-3.325,10.554-4.017c2.359,2.625,18.852,20.479,24.592,88.262
					c0.967,11.422-2.087,35.615-4.128,55.361c-2.177,21.064-4.588,37.506-6.355,55.123c-3.482,34.707-5.917,62.325-5.917,62.325
					l-34.543-15.379c-5.589-2.798-13.33-14.271-11.228-20.157c7.986-22.366,18.042-60.58,18.053-80.205
					c0,0-3.854-48.06-6.907-58.623C323.699,1297.33,318.251,1319.618,316.943,1337.208z"/>
			</g>
			<path style="fill:#EEA886;" d="M376.375,1124.502c0,0,34.63-12.813,32.465,33.207c-2.165,46.021-10.281,50.697-33.061,44.27
				c-22.78-6.427-24.689-35.473-27.656-49.443C345.157,1138.563,365.051,1126.512,376.375,1124.502z"/>
			<path style="fill:#434343;" d="M352.936,1175.359c0,0-0.098-12.294,5.015-13.426c5.111-1.131,7.745,5.976,7.745,5.976
				l4.116-0.222c0,0-3.679-12.457,1.195-15.313c4.874-2.856,34.03-0.347,37.689-4.542c3.659-4.193-1.648-29.104-9.602-31.549
				c-7.955-2.445-29.685-7.404-43.483,4.885c0,0-12.002,0.228-12.484,10.002C342.646,1140.945,348.778,1168.693,352.936,1175.359z"
				/>
			<path style="fill:#EEA886;" d="M363.738,1156.715c-1.529-4.056-10.167-3.545-9.282,2.885c0.884,6.429,8.022,16.33,10.889,14.474
				C368.211,1172.216,365.847,1162.307,363.738,1156.715z"/>
			<g>
				<path style="fill:#EEA987;" d="M358.901,1212.346c0,0,3.058-2.519-1.328-25.56c-1.174-6.167,32.512,7.358,32.512,7.358
					s-0.272,5.054-0.24,10.119c0.01,2.271,0.085,4.537,0.272,6.359c0.139,1.371,0.945,3.781,1.234,4.447
					C392.875,1218.584,371.353,1221.258,358.901,1212.346z"/>
			</g>
			<path style="fill:#A77860;" d="M390.116,1210.623c-20.217-0.261-26.716-15.631-26.914-16.111
				c10.652,10.791,26.642,9.752,26.642,9.752C389.854,1206.534,389.93,1208.801,390.116,1210.623z"/>
			<path style="fill:#5A954B;" d="M381.979,1224.276l6.13,8.235c0,0-3.591,4.809-9.969,1.26L381.979,1224.276z"/>
			<path style="fill:#5A954B;" d="M386.358,1232.842c0,0,22.736,87.535,18.049,155.674l-7.649,13.48l-7.16-14.122
				c0,0-1.962-121.881-8.195-155.247L386.358,1232.842z"/>
			<path style="fill:#EEA987;" d="M388.543,1216.598l-6.564,7.679c0,0-10.533-2.04-13.626-7.542
				C365.261,1211.232,388.543,1216.598,388.543,1216.598z"/>
			<path style="fill:#C4C1CC;" d="M390.048,1209.879c0,0-0.763,5.853-8.069,14.397l7.975,10.715l4.316-22.228L390.048,1209.879z"/>
			<path style="fill:#C4C1CC;" d="M359.878,1203.89c0,0,11.451,16.177,22.102,20.387l-4.954,12.251l-22.634-27.356L359.878,1203.89z
				"/>
		</g>
	</g>
</g>
</svg>
